HIERARCHY
ROOT hip
{
  OFFSET 0 0 0
  CHANNELS 6 Xposition Yposition Zposition Zrotation Yrotation Xrotation
  JOINT abdomen
  {
    OFFSET 0 20.6881 -0.73152
    CHANNELS 3 Zrotation Xrotation Yrotation
    JOINT chest
    {
      OFFSET 0 11.7043 -0.48768
      CHANNELS 3 Zrotation Xrotation Yrotation
      JOINT neck
      {
        OFFSET 0 22.1894 -2.19456
        CHANNELS 3 Zrotation Xrotation Yrotation
        JOINT head
        {
          OFFSET -0.24384 7.07133 1.2192
          CHANNELS 3 Zrotation Xrotation Yrotation
          JOINT leftEye
          {
            OFFSET 4.14528 8.04674 8.04672
            CHANNELS 3 Zrotation Xrotation Yrotation
            End Site
            {
              OFFSET 1 0 0
            }
          }
          JOINT rightEye
          {
            OFFSET -3.6576 8.04674 8.04672
            CHANNELS 3 Zrotation Xrotation Yrotation
            End Site
            {
              OFFSET 1 0 0
            }
          }
        }
      }
      JOINT rCollar
      {
        OFFSET -2.68224 19.2634 -4.8768
        CHANNELS 3 Zrotation Xrotation Yrotation
        JOINT rShldr
        {
          OFFSET -8.77824 -1.95073 1.46304
          CHANNELS 3 Zrotation Xrotation Yrotation
          JOINT rForeArm
          {
            OFFSET -28.1742 -1.7115 0.48768
            CHANNELS 3 Zrotation Xrotation Yrotation
            JOINT rHand
            {
              OFFSET -22.5879 0.773209 7.07136
              CHANNELS 3 Zrotation Xrotation Yrotation
              JOINT rThumb1
              {
                OFFSET -1.2192 -0.487915 3.41376
                CHANNELS 3 Zrotation Xrotation Yrotation
                JOINT rThumb2
                {
                  OFFSET -3.37035 -0.52449 3.41376
                  CHANNELS 3 Zrotation Xrotation Yrotation
                  End Site
                  {
                    OFFSET -1.78271 -1.18214 1.43049
                  }
                }
              }
              JOINT rIndex1
              {
                OFFSET -7.75947 0.938293 5.60832
                CHANNELS 3 Zrotation Xrotation Yrotation
                JOINT rIndex2
                {
                  OFFSET -2.54057 -0.884171 1.56538
                  CHANNELS 3 Zrotation Xrotation Yrotation
                  End Site
                  {
                    OFFSET -1.62519 -0.234802 1.16502
                  }
                }
              }
              JOINT rMid1
              {
                OFFSET -8.24714 1.18213 3.41376
                CHANNELS 3 Zrotation Xrotation Yrotation
                JOINT rMid2
                {
                  OFFSET -3.10165 -0.590103 1.0647
                  CHANNELS 3 Zrotation Xrotation Yrotation
                  End Site
                  {
                    OFFSET -2.48547 -0.328903 0.83742
                  }
                }
              }
              JOINT rRing1
              {
                OFFSET -8.82822 0.546677 1.51678
                CHANNELS 3 Zrotation Xrotation Yrotation
                JOINT rRing2
                {
                  OFFSET -2.60934 -0.819778 -0.0198488
                  CHANNELS 3 Zrotation Xrotation Yrotation
                  End Site
                  {
                    OFFSET -2.33842 -0.294052 0.168128
                  }
                }
              }
              JOINT rPinky1
              {
                OFFSET -8.27202 -0.0477905 -0.4584
                CHANNELS 3 Zrotation Xrotation Yrotation
                JOINT rPinky2
                {
                  OFFSET -1.82734 -0.647385 -0.700984
                  CHANNELS 3 Zrotation Xrotation Yrotation
                  End Site
                  {
                    OFFSET -1.69225 -0.51767 -0.607171
                  }
                }
              }
            }
          }
        }
      }
      JOINT lCollar
      {
        OFFSET 2.68224 19.2634 -4.8768
        CHANNELS 3 Zrotation Xrotation Yrotation
        JOINT lShldr
        {
          OFFSET 8.77824 -1.95073 1.46304
          CHANNELS 3 Zrotation Xrotation Yrotation
          JOINT lForeArm
          {
            OFFSET 28.1742 -1.7115 0.48768
            CHANNELS 3 Zrotation Xrotation Yrotation
            JOINT lHand
            {
              OFFSET 22.5879 0.773209 7.07136
              CHANNELS 3 Zrotation Xrotation Yrotation
              JOINT lThumb1
              {
                OFFSET 1.2192 -0.487915 3.41376
                CHANNELS 3 Zrotation Xrotation Yrotation
                JOINT lThumb2
                {
                  OFFSET 3.37035 -0.52449 3.41376
                  CHANNELS 3 Zrotation Xrotation Yrotation
                  End Site
                  {
                    OFFSET 1.78271 -1.18214 1.43049
                  }
                }
              }
              JOINT lIndex1
              {
                OFFSET 7.75947 0.938293 5.60832
                CHANNELS 3 Zrotation Xrotation Yrotation
                JOINT lIndex2
                {
                  OFFSET 2.54057 -0.884171 1.56538
                  CHANNELS 3 Zrotation Xrotation Yrotation
                  End Site
                  {
                    OFFSET 1.62519 -0.234802 1.16502
                  }
                }
              }
              JOINT lMid1
              {
                OFFSET 8.24714 1.18213 3.41376
                CHANNELS 3 Zrotation Xrotation Yrotation
                JOINT lMid2
                {
                  OFFSET 3.10165 -0.590103 1.0647
                  CHANNELS 3 Zrotation Xrotation Yrotation
                  End Site
                  {
                    OFFSET 2.48547 -0.328903 0.83742
                  }
                }
              }
              JOINT lRing1
              {
                OFFSET 8.82822 0.546677 1.51678
                CHANNELS 3 Zrotation Xrotation Yrotation
                JOINT lRing2
                {
                  OFFSET 2.60934 -0.819778 -0.0198488
                  CHANNELS 3 Zrotation Xrotation Yrotation
                  End Site
                  {
                    OFFSET 2.33842 -0.294052 0.168128
                  }
                }
              }
              JOINT lPinky1
              {
                OFFSET 8.27202 -0.0477905 -0.4584
                CHANNELS 3 Zrotation Xrotation Yrotation
                JOINT lPinky2
                {
                  OFFSET 1.82734 -0.647385 -0.700984
                  CHANNELS 3 Zrotation Xrotation Yrotation
                  End Site
                  {
                    OFFSET 1.69225 -0.51767 -0.607171
                  }
                }
              }
            }
          }
        }
      }
    }
  }
  JOINT rButtock
  {
    OFFSET -8.77824 4.35084 1.2192
    CHANNELS 3 Zrotation Xrotation Yrotation
    JOINT rThigh
    {
      OFFSET 0 -1.70687 -2.19456
      CHANNELS 3 Zrotation Xrotation Yrotation
      JOINT rShin
      {
        OFFSET 0 -36.8199 0.73152
        CHANNELS 3 Zrotation Xrotation Yrotation
        JOINT rFoot
        {
          OFFSET 0.73152 -45.1104 -5.12064
          CHANNELS 3 Zrotation Xrotation Yrotation
          End Site
          {
            OFFSET -1.1221 -3.69964 12.103
          }
        }
      }
    }
  }
  JOINT lButtock
  {
    OFFSET 8.77824 4.35084 1.2192
    CHANNELS 3 Zrotation Xrotation Yrotation
    JOINT lThigh
    {
      OFFSET 0 -1.70687 -2.19456
      CHANNELS 3 Zrotation Xrotation Yrotation
      JOINT lShin
      {
        OFFSET 0 -36.8199 0.73152
        CHANNELS 3 Zrotation Xrotation Yrotation
        JOINT lFoot
        {
          OFFSET -0.73152 -45.1104 -5.12064
          CHANNELS 3 Zrotation Xrotation Yrotation
          End Site
          {
            OFFSET 1.1221 -3.69964 12.103
          }
        }
      }
    }
  }
}
MOTION
Frames:	6
Frame Time:	0.03333
0.0 0.0 0.0 0.0 0.0 0.0 0.0 0.0 0.0 0.0 0.0 0.0 0.0 0.0 0.0 0.0 0.0 0.0 0.0 0.0 0.0 0.0 0.0 0.0 0.0 0.0 0.0 0.0 0.0 0.0 0.0 0.0 0.0 0.0 0.0 0.0 0.0 0.0 0.0 0.0 0.0 0.0 0.0 0.0 0.0 0.0 0.0 0.0 0.0 0.0 0.0 0.0 0.0 0.0 0.0 0.0 0.0 0.0 0.0 0.0 0.0 0.0 0.0 0.0 0.0 0.0 0.0 0.0 0.0 0.0 0.0 0.0 0.0 0.0 0.0 0.0 0.0 0.0 0.0 0.0 0.0 0.0 0.0 0.0 0.0 0.0 0.0 0.0 0.0 0.0 0.0 0.0 0.0 0.0 0.0 0.0 0.0 0.0 0.0 0.0 0.0 0.0 0.0 0.0 0.0 0.0 0.0 0.0 0.0 0.0 0.0 0.0 0.0 0.0 0.0 0.0 0.0 0.0 0.0 0.0 0.0 0.0 0.0 0.0 0.0 0.0 0.0 0.0 0.0 0.0 0.0 0.0
-0.1295 68.1342 0.0646 179.69517 -15.86572 179.296206 0.212558 -0.619458 -161.060697 9.037792 5.867673 -53.341228 12.267327 -9.382651 124.505737 24.021138 -29.021873 24.48052 109.352464 -0.319013 0.450161 56.754347 29.086565 51.305412 -82.164048 -54.447806 170.87853 -159.602944 24.613873 167.653 -171.90435 -0.285426 -15.321786 -179.603297 28.700418 145.24324 -86.747786 53.064155 37.590067 36.662171 -26.384938 18.983829 -54.820818 -82.661327 -11.76853 25.39968 -1.933109 -74.095561 -149.920075 12.369811 154.522539 -167.065123 43.951709 -162.000455 -169.485304 0.813692 93.277771 -80.258783 85.125537 -99.267482 172.636172 -39.602982 -21.985761 10.173529 -53.132978 41.454085 -82.913494 -2.341181 -4.857154 176.107886 -45.497776 -172.49537 1.748384 -28.817105 -158.797501 -179.121434 24.509251 -147.693165 173.995431 1.444319 -112.54054 40.471942 67.440721 156.249635 65.887533 65.138353 8.260112 -110.177238 50.740803 -43.7956 -179.461113 -40.72306 -131.279196 -179.12446 0.955 -99.469058 -103.703791 64.170386 -92.814546 17.665638 6.090449 29.048057 -29.745099 -75.497823 104.317273 132.75954 -22.926983 90.220061 -33.863811 41.42245 -136.937442 -1.865924 50.114932 -165.474872 -4.643191 -1.793733 -75.631615 55.845667 -54.228635 -114.07476 -2.53015 -48.224265 0.280575 4.233994 49.23472 -35.801484 6.19834 -1.801184 73.346554 -51.596073 -52.511461 119.648507
0.4724 67.2546 0.6481 -177.226431 -19.077713 -171.714772 -5.347923 -3.142991 104.08572 -12.056921 -3.232942 -94.894903 0.085417 1.981719 65.267487 -1.862559 -2.742819 -64.289475 11.025497 1.212252 12.510944 -17.873449 -0.534875 3.400401 16.610165 -86.347274 -7.476358 -164.421193 7.072506 176.949557 -1.215407 -80.153974 71.652943 4.915255 1.748858 -11.20473 0.112726 -1.076193 -3.975466 42.583544 -62.10499 -12.193786 -164.848035 -2.09281 107.874214 99.798754 -56.389461 39.899292 -141.535278 44.570233 105.29721 -125.307174 21.838665 115.732279 -90.15529 51.696867 90.375619 24.548664 23.791005 11.604554 -133.954138 -49.640331 -115.016662 87.73046 80.128849 -66.756877 -1.4956 -21.287877 10.080989 -25.722245 -57.31546 -23.648054 38.223333 73.571417 -90.794962 8.964393 -23.075068 7.416237 -0.818103 20.495996 1.074164 144.9521 -32.921564 -124.553564 154.32796 -68.086314 -135.871674 -24.142236 -24.464205 9.432135 157.853263 -63.247687 -154.593226 174.062712 -9.093216 -134.918799 77.511581 -74.839066 113.616531 -132.082702 -59.397237 -132.523897 25.938194 76.034127 -72.825926 -44.361198 37.420091 20.191176 76.128654 23.149284 49.634672 -98.48637 14.621242 27.52435 72.431799 17.974319 -170.366868 45.772487 -70.335081 125.649038 -0.219717 0.804959 15.267779 -9.064355 -49.804239 -0.0 -21.556993 63.128468 -66.300531 150.406156 -59.095886 -120.59688
-0.2201 65.8649 0.8004000000000001 179.443134 -6.804063 -169.614848 0.685273 -6.609526 -5.129113 -2.032685 -9.708264 21.860885 13.391329 18.876421 145.489802 -3.562727 31.399112 -168.832172 25.615944 0.297904 1.31033 -13.877005 -3.834651 30.761227 -68.688527 -77.504761 -90.223794 -22.243642 72.883773 42.537875 -4.36778 12.224379 55.66113 1.91161 1.36191 -5.690296 86.107142 -47.407554 39.337715 -108.40686 9.429563 35.230053 -10.114956 5.179952 31.822332 -170.36878 -38.073559 165.274937 -143.474014 -73.264032 -154.900286 -36.388041 -81.451758 -80.077697 -150.558633 -5.963423 162.140052 -137.899958 -32.627256 171.240998 -155.357047 -21.293529 -147.415217 -113.712919 -52.943069 -98.496426 148.566182 21.298771 -149.225852 -25.845796 -21.841741 -8.929857 -3.952893 42.194887 68.357081 162.284732 4.368808 -137.273353 -99.830607 -72.990177 -23.710452 99.604257 -16.345358 -101.569636 146.067778 -31.340983 -104.994755 58.070511 -21.515486 2.281369 -14.382856 -0.241152 25.543727 160.456429 5.867719 -133.043775 -5.660881 -0.116333 -1.560922 -89.144965 -82.358955 -52.970307 89.34384 -52.738584 83.955037 125.957719 -9.341347 126.791601 -8.298646 1.437264 0.0 -13.222303 -39.759956 57.429453 78.46919 -6.331637 -55.977467 -7.883664 -13.326183 -28.762014 151.503416 71.348396 0.0 -154.77081 6.90989 -2.712867 31.025522 62.660138 7.118236 -169.30493 -14.424809 30.228651
-0.48700000000000004 64.6239 0.9069 -179.276349 0.073621 -172.770384 7.05222 2.309086 -71.960423 15.146049 -9.76616 87.994191 15.010707 10.341105 98.31302 -12.772696 16.866694 -103.753087 137.838078 24.454541 -58.686134 179.947133 -0.045971 82.017901 -2.771482 -27.156685 -7.42708 -147.380416 36.513278 156.951058 -175.432963 -67.852085 -140.573356 1.758293 3.222136 -14.087122 -86.693759 33.712825 37.25393 -127.136341 -51.20087 112.983554 -51.565196 47.675047 22.831096 174.291067 -19.822229 112.487644 119.259948 -75.683288 101.825784 19.005178 3.394451 -8.577373 -179.568301 -44.88854 175.438327 -163.237982 -11.853748 -171.901009 -155.269901 -30.211322 -171.330897 -81.031311 -72.880047 -66.015029 1.882611 -2.314309 -8.900767 68.817322 -68.838009 73.482715 -72.114946 -81.966772 -4.909606 173.160712 6.078177 -135.878016 12.313826 14.393039 -5.624732 77.29504 28.171801 -56.637634 -11.154623 -31.268436 18.852959 -168.175865 -79.207114 -60.221842 -91.654173 -77.931406 -51.638334 164.436615 9.023562 -139.579882 25.673357 -87.505613 33.26208 173.910296 46.383619 168.957715 3.694921 -52.146882 -1.283961 142.795162 -35.413806 134.183905 -102.691486 31.449812 -45.231159 101.090951 3.628277 0.0 45.418288 76.285219 55.222115 -170.636043 61.121347 92.961133 -67.953061 36.132604 -33.620635 111.959069 -8.81498 -0.0 -65.664466 40.385964 136.200706 40.7612 -60.530828 -38.843362
0.6777 71.1135 0.8193 179.889619 -0.081345 -172.98742 -3.880388 -3.717219 -88.040723 9.675553 4.436295 95.262709 -4.098803 15.170625 -91.295243 27.947798 4.593919 92.085504 146.532484 25.445292 -73.808686 33.303124 13.481558 43.12555 -6.932448 25.126995 5.304689 22.856971 -54.210627 26.327803 -80.361816 46.667688 83.076867 57.245405 -71.534164 34.759386 6.50725 -11.653793 -2.852381 -30.733658 -4.30064 8.262652 -132.239853 72.167716 93.128742 -177.340572 4.129359 86.672377 -176.993637 -45.046628 162.382857 -98.953098 -61.585409 -148.672247 -79.994787 53.497213 94.106169 24.793498 -0.072414 -4.578947 -125.622316 69.547191 -177.099277 -139.509981 27.020918 -122.054814 126.116965 52.363523 -129.05659 -36.641581 1.6247 -4.460478 153.125066 -76.141926 128.431172 4.212468 -14.044741 14.806039 167.969041 -7.763269 -88.879072 92.884634 13.799549 -15.780761 142.406819 18.779515 -113.485257 171.238657 -8.114127 -109.187582 -14.702409 -10.182927 -21.386914 83.353056 -81.087848 109.35344 28.168583 -4.158003 -15.237939 -25.855571 64.731493 -41.637793 114.938549 -70.685353 122.248264 82.865565 -68.048854 42.220554 0.643704 0.279957 -0.0 -28.264317 -37.621348 -0.0 46.97995 53.273085 -160.11987 153.125351 -27.112241 -100.441221 -5.465188 0.359045 -1.366125 17.910988 -42.224793 -71.8119 -69.116886 -6.99971 0.101557 135.735921 -48.866493 -141.000753
